<?xml version="1.0" encoding="utf-8"?>
<!-- Generator: Adobe Illustrator 23.0.1, SVG Export Plug-In . SVG Version: 6.00 Build 0)  -->
<svg version="1.1" id="Vrstva_1" xmlns="http://www.w3.org/2000/svg" xmlns:xlink="http://www.w3.org/1999/xlink" x="0px" y="0px"
	 viewBox="0 0 1536.28 1024.19" style="enable-background:new 0 0 1536.28 1024.19;" xml:space="preserve">
<style type="text/css">
	.st0{fill:#F3F0EB;}
	.st1{fill:#EC484B;}
	.st2{fill:#1B1D1E;}
	.st3{fill:#167FB1;}
	.st4{fill:#1D1D1B;}
</style>
<g id="background">
	<path class="st0" d="M1152.21,756.17c2.4,0.11,3.37-1.95,4.71-3.29c68.89-68.9,137.74-137.83,206.61-206.76
		c56.38-56.43,112.77-112.86,169.18-169.28c1.03-1.03,1.81-2.43,3.42-2.75c0,97,0,194,0,291c-0.36,0.33-0.72,0.65-1.08,0.98
		c-7.36,6.59-14.26,13.62-20.96,20.87c-0.37,0.37-0.73,0.75-1.1,1.12c-1.97,1.97-3.94,3.93-5.91,5.9c-0.69,0.7-1.39,1.4-2.08,2.1
		c-2.59,2.01-4.89,4.31-6.91,6.9c-0.37,0.37-0.73,0.74-1.1,1.11c-1.26,0.67-2.21,1.64-2.9,2.88c-0.37,0.37-0.74,0.75-1.11,1.12
		c-8.27,7.66-16.22,15.64-23.88,23.91c-0.37,0.36-0.73,0.73-1.1,1.09c-0.3,0.3-0.6,0.6-0.9,0.9c-0.36,0.37-0.71,0.74-1.07,1.11
		l0.08-0.08c-0.36,0.36-0.73,0.72-1.09,1.08c-3.64,2.95-6.87,6.3-9.93,9.84c-0.36,0.39-0.72,0.78-1.08,1.16l0.1-0.11
		c-0.36,0.37-0.73,0.74-1.09,1.11l0.06-0.09c-0.7,0.69-1.39,1.38-2.09,2.07c-4.3,4.3-8.6,8.59-12.9,12.89
		c-0.37,0.37-0.75,0.75-1.12,1.12c-9.3,9.28-18.59,18.56-27.89,27.84c-0.38,0.38-0.76,0.77-1.15,1.15
		c-0.62,0.61-1.24,1.23-1.86,1.84c-0.37,0.39-0.74,0.78-1.1,1.18l0.13-0.13c-0.39,0.37-0.79,0.74-1.18,1.11
		c-6.27,6.3-12.55,12.6-18.82,18.9c-0.38,0.37-0.77,0.74-1.15,1.11c-4.62,4.61-9.24,9.22-13.86,13.83
		c-0.38,0.39-0.77,0.78-1.15,1.16c-0.28,0.29-0.56,0.57-0.84,0.86c-0.38,0.38-0.77,0.76-1.15,1.14c-0.29,0.27-0.57,0.55-0.86,0.82
		c-0.39,0.39-0.78,0.78-1.17,1.17c-0.61,0.61-1.22,1.23-1.83,1.84c-0.37,0.39-0.74,0.79-1.11,1.18l0.13-0.13
		c-0.39,0.37-0.79,0.74-1.18,1.11c-3.28,3.28-6.56,6.56-9.84,9.84c-0.37,0.4-0.74,0.79-1.1,1.19l0.12-0.14
		c-0.38,0.38-0.76,0.75-1.13,1.13l0.14-0.13c-0.4,0.37-0.8,0.74-1.2,1.11c-0.61,0.61-1.22,1.21-1.83,1.82
		c-0.39,0.39-0.78,0.79-1.18,1.18c-0.28,0.27-0.55,0.55-0.83,0.82c-0.37,0.4-0.74,0.8-1.11,1.2l0.13-0.15
		c-0.38,0.38-0.76,0.76-1.14,1.13c0,0,0.14-0.15,0.14-0.15c-0.38,0.38-0.76,0.76-1.14,1.15c0,0,0.14-0.15,0.14-0.15
		c-0.38,0.38-0.76,0.76-1.14,1.15c0,0,0.14-0.15,0.14-0.15c-0.38,0.38-0.76,0.76-1.14,1.15c0,0,0.14-0.15,0.14-0.15
		c-0.39,0.38-0.77,0.76-1.16,1.14c0,0,0.15-0.16,0.15-0.16c-0.38,0.39-0.77,0.77-1.15,1.16c0,0,0.17-0.14,0.17-0.14
		c-0.42,0.38-0.84,0.75-1.26,1.13c-0.26,0.27-0.51,0.53-0.77,0.8c-0.37,0.41-0.75,0.82-1.12,1.23l0.13-0.16
		c-0.38,0.38-0.76,0.77-1.14,1.15c0,0,0.14-0.15,0.14-0.15c-0.38,0.38-0.76,0.77-1.14,1.15c0,0,0.14-0.15,0.14-0.15
		c-0.38,0.38-0.76,0.77-1.13,1.15c0,0,0.14-0.14,0.14-0.14c-0.38,0.38-0.76,0.76-1.14,1.14c0,0,0.14-0.14,0.14-0.14
		c-0.38,0.38-0.76,0.76-1.14,1.14l0.14-0.14c-0.38,0.38-0.76,0.76-1.14,1.14l0.14-0.15c-0.38,0.38-0.76,0.77-1.13,1.15l0.14-0.14
		c-0.38,0.38-0.76,0.76-1.14,1.14c0,0,0.14-0.14,0.14-0.14c-0.39,0.38-0.77,0.76-1.16,1.13l0.15-0.16
		c-0.38,0.39-0.77,0.77-1.15,1.16l0.15-0.16c-0.38,0.39-0.76,0.77-1.15,1.16c0,0,0.14-0.16,0.14-0.16
		c-0.38,0.39-0.76,0.77-1.14,1.16c0,0,0.17-0.14,0.17-0.14c-0.44,0.37-0.88,0.74-1.32,1.11c-0.57,0.6-1.14,1.2-1.72,1.79
		c-0.37,0.42-0.74,0.84-1.12,1.25c0,0,0.13-0.17,0.13-0.17c-0.38,0.38-0.76,0.77-1.14,1.15c0,0,0.14-0.15,0.14-0.15
		c-0.38,0.38-0.76,0.77-1.14,1.15c0,0,0.14-0.15,0.14-0.15c-0.38,0.38-0.76,0.77-1.14,1.15l0.14-0.15
		c-0.39,0.38-0.77,0.76-1.16,1.15l0.15-0.16c-0.38,0.39-0.76,0.78-1.14,1.17l0.14-0.15c-0.38,0.38-0.76,0.77-1.14,1.15
		c0,0,0.14-0.15,0.14-0.15c-0.39,0.38-0.77,0.76-1.16,1.14c0,0,0.15-0.16,0.15-0.16c-0.38,0.39-0.77,0.77-1.15,1.16
		c0,0,0.15-0.16,0.15-0.16c-0.38,0.39-0.76,0.77-1.14,1.16l0.15-0.16c-0.38,0.39-0.76,0.77-1.14,1.16l0.14-0.15
		c-0.38,0.38-0.76,0.77-1.14,1.15l0.14-0.15c-0.38,0.38-0.76,0.77-1.14,1.15l0.14-0.15c-0.38,0.39-0.76,0.77-1.13,1.16l0.14-0.15
		c-0.38,0.38-0.76,0.76-1.14,1.15l0.14-0.15c-0.38,0.38-0.76,0.76-1.14,1.15l0.14-0.15c-0.38,0.38-0.76,0.76-1.14,1.14
		c0,0,0.14-0.15,0.14-0.15c-0.38,0.38-0.76,0.77-1.14,1.15l0.16-0.14c-0.41,0.37-0.83,0.75-1.24,1.12
		c-1.56,0.98-2.84,2.24-3.79,3.83c-0.37,0.4-0.74,0.81-1.11,1.21l0.13-0.16c-0.38,0.38-0.76,0.76-1.13,1.15l0.14-0.14
		c-0.38,0.38-0.76,0.76-1.14,1.14l0.14-0.14c-0.37,0.38-0.74,0.77-1.12,1.15c0,0,0.13-0.13,0.13-0.13
		c-0.38,0.37-0.76,0.75-1.14,1.12c0,0,0.13-0.14,0.13-0.14c-0.38,0.38-0.76,0.76-1.13,1.14c0,0,0.14-0.13,0.14-0.13
		c-0.4,0.37-0.8,0.75-1.2,1.12c-1.27,1.28-2.55,2.55-3.82,3.83c-0.39,0.39-0.77,0.78-1.16,1.17c-1.28,1.28-2.56,2.55-3.84,3.83
		c-0.37,0.4-0.73,0.8-1.1,1.19l0.12-0.14c-0.38,0.38-0.75,0.75-1.13,1.13l0.13-0.13c-0.38,0.38-0.75,0.76-1.13,1.13l0.14-0.13
		c-0.4,0.37-0.79,0.74-1.19,1.11c-0.28,0.28-0.55,0.57-0.83,0.85c-0.39,0.38-0.77,0.77-1.16,1.15c-0.28,0.28-0.57,0.56-0.85,0.83
		c-0.37,0.4-0.73,0.79-1.1,1.19l0.06-0.13c-1.02,1.03-2.04,2.05-3.06,3.08l0.12-0.07c-0.37,0.36-0.74,0.73-1.11,1.09
		c-0.39,0.38-10.58,10.43-10.95,11.03c-0.36,0.33-0.71,0.65-1.07,0.98c-0.3,0.29-0.59,0.58-0.89,0.87
		c-0.38,0.38-0.77,0.76-1.15,1.13c-1.95,1.96-3.9,3.91-5.85,5.87c-0.37,0.38-0.73,0.77-1.1,1.15c-2.63,2.62-5.27,5.24-7.9,7.87
		c-0.36,0.38-0.73,0.76-1.09,1.14l0.11-0.11c-0.38,0.37-0.76,0.73-1.14,1.1c-9.31,8.61-18.21,17.64-26.87,26.9
		c-0.36,0.37-0.73,0.74-1.09,1.12c-5.29,4.64-10.24,9.61-14.91,14.86c-0.37,0.38-0.74,0.75-1.12,1.13
		c-3.61,2.96-6.86,6.29-9.89,9.84c-0.37,0.39-0.74,0.78-1.12,1.17c0,0,0.12-0.14,0.12-0.14c-0.38,0.38-0.75,0.76-1.13,1.13
		c0,0,0.14-0.13,0.14-0.13c-0.4,0.37-0.8,0.74-1.2,1.11c-0.28,0.28-0.55,0.56-0.83,0.84c-0.65,0.74-1.29,1.47-1.94,2.21
		c-96.67,0-193.33,0-290,0c11.08-11.24,22.1-22.54,33.25-33.71c43.75-43.8,87.55-87.57,131.33-131.34"/>
	<g>
		<path class="st0" d="M883.18,216.28c0.01-0.01,0.03-0.03,0.04-0.04c0.03-0.03,0.07-0.07,0.1-0.1
			C883.31,216.14,883.17,216.28,883.18,216.28z"/>
		<path class="st0" d="M876.18,223.29c0.02-0.02,0.04-0.04,0.06-0.06c0.03-0.03,0.05-0.05,0.08-0.08
			C876.33,223.14,876.18,223.29,876.18,223.29z"/>
		<path class="st0" d="M871.25,228.22c0.02-0.02,0.05-0.05,0.07-0.07C871.32,228.14,871.28,228.18,871.25,228.22z"/>
		<path class="st0" d="M897.16,202.24c0.02-0.02,0.05-0.04,0.07-0.06c0.02-0.02,0.03-0.04,0.05-0.06
			C897.28,202.12,897.16,202.24,897.16,202.24z"/>
		<path class="st0" d="M1531.63,0c-144.5,0.11-289,0.09-433.5,0.09c-0.46,1.93-2.14,2.89-3.38,4.15
			c-25.19,25.44-50.36,50.9-75.64,76.25c-16.56,16.62-33.28,33.08-49.92,49.61c-0.54,0.48-1.07,0.96-1.61,1.45
			c0,0-0.03-0.09-0.03-0.09c-0.04,0.64-0.39,0.97-1.01,1.05c-0.05,0.6-0.38,0.93-0.99,1c0,0,0.04,0.04,0.04,0.04
			c-0.48,0.55-0.95,1.1-1.43,1.65c-0.98,0.98-1.95,1.95-2.93,2.93c-0.35,0.34-0.69,0.68-1.04,1.02c-0.34,0.36-0.69,0.72-1.03,1.09
			c-6.31,6.3-12.61,12.6-18.92,18.9c-0.36,0.36-0.72,0.72-1.08,1.08c-4.98,5.62-10.29,10.92-15.88,15.93
			c-0.37,0.36-0.74,0.73-1.12,1.09c-1.3,1.96-2.98,3.55-4.88,4.91c-0.37,0.36-0.75,0.73-1.12,1.09c0,0,0.1-0.1,0.1-0.1
			c-0.37,0.37-0.73,0.73-1.1,1.1c0,0,0.1-0.1,0.1-0.1c-0.36,0.38-0.73,0.75-1.09,1.13c-2.65,3.26-5.61,6.23-8.86,8.89
			c-0.38,0.38-0.75,0.76-1.13,1.15c-0.61,0.62-1.22,1.25-1.83,1.87c-0.37,0.35-0.74,0.7-1.11,1.04c-0.35,0.37-0.7,0.75-1.04,1.12
			c-0.62,0.61-1.24,1.22-1.86,1.83c-0.37,0.34-0.74,0.69-1.1,1.03c-0.35,0.37-0.7,0.74-1.05,1.11c-1.95,1.95-3.89,3.91-5.84,5.86
			c-0.39,0.37-0.79,0.73-1.18,1.1c0,0,0.13-0.12,0.13-0.12c-0.37,0.37-0.75,0.75-1.12,1.12c0,0,0.12-0.12,0.12-0.12
			c-0.37,0.38-0.74,0.76-1.12,1.14c0,0,0.14-0.14,0.14-0.14c-0.38,0.38-0.76,0.76-1.14,1.14c0,0,0.14-0.14,0.14-0.14
			c-0.38,0.38-0.76,0.76-1.13,1.14c0,0,0.14-0.14,0.14-0.14c-0.35,0.35-0.69,0.71-1.04,1.06c-0.36,0.35-0.71,0.69-1.07,1.04
			c-0.34,0.35-0.69,0.7-1.03,1.05c0,0,0.14-0.14,0.14-0.14c-0.38,0.38-0.76,0.77-1.14,1.16c0,0,0.15-0.15,0.15-0.15
			c-0.38,0.38-0.76,0.77-1.15,1.15c0,0,0.15-0.15,0.15-0.15c-0.38,0.38-0.77,0.76-1.15,1.14c0,0,0.15-0.15,0.15-0.15
			c-0.38,0.38-0.76,0.76-1.15,1.15c0,0,0.15-0.15,0.15-0.15c-0.38,0.38-0.76,0.76-1.15,1.15c0,0,0.15-0.15,0.15-0.15
			c-0.36,0.36-0.72,0.72-1.08,1.08c-0.35,0.36-0.7,0.72-1.06,1.07c0,0,0.15-0.15,0.15-0.15c-0.36,0.36-0.72,0.73-1.08,1.09
			c-0.35,0.36-0.71,0.71-1.07,1.07c0,0,0.15-0.15,0.15-0.15c-0.38,0.38-0.77,0.77-1.15,1.15c0,0,0.15-0.15,0.15-0.15
			c-0.39,0.38-0.77,0.75-1.16,1.13c0,0,0.03-0.03,0.07-0.07c-0.32,0.32-0.64,0.64-0.96,0.97c-0.37,0.37-0.74,0.74-1.11,1.11
			c0,0,0.14-0.14,0.14-0.14c-0.38,0.38-0.77,0.75-1.15,1.13c0,0,0.14-0.13,0.14-0.13c-0.34,0.34-0.68,0.68-1.02,1.02
			c-0.37,0.37-0.75,0.74-1.12,1.11c0,0,0.13-0.14,0.13-0.14c-0.37,0.4-0.74,0.81-1.11,1.21c-0.27,0.27-0.54,0.55-0.81,0.82
			c-0.4,0.37-0.81,0.74-1.21,1.12c0,0,0.15-0.13,0.15-0.13c-0.38,0.38-0.75,0.77-1.13,1.15c0,0,0.14-0.14,0.14-0.14
			c-0.35,0.35-0.7,0.71-1.05,1.06c-0.36,0.36-0.73,0.72-1.09,1.08c0,0,0.14-0.16,0.14-0.16c-0.37,0.42-0.74,0.84-1.12,1.26
			c-0.26,0.26-0.52,0.52-0.78,0.78c-0.42,0.37-0.84,0.74-1.25,1.12c0,0,0.16-0.14,0.16-0.14c-0.38,0.39-0.76,0.78-1.14,1.17
			c0,0,0.16-0.15,0.16-0.15c-0.38,0.38-0.77,0.77-1.15,1.15c0,0,0.15-0.15,0.15-0.15c-0.38,0.38-0.77,0.77-1.15,1.16
			c0,0,0.15-0.16,0.15-0.16c-0.38,0.38-0.77,0.77-1.15,1.15c0,0,0.15-0.16,0.15-0.16c-0.38,0.38-0.77,0.77-1.15,1.16
			c0,0,0.13-0.18,0.13-0.18c-0.37,0.47-0.74,0.93-1.11,1.4c-1.12,1.22-2.19,2.48-3.35,3.65c-24.96,25.17-49.9,50.36-74.95,75.44
			c-3.28,3.29-3.58,5.64-0.04,9.03c8.41,8.05,16.46,16.48,24.69,24.73c41.83,41.94,83.67,83.87,125.5,125.8
			c1.23-1.11,2.5-2.17,3.67-3.34c67.38-67.9,134.76-135.79,202.09-203.74c2.25-2.27,4.49-3.43,7.83-3.43
			c44.66,0.12,89.33,0.06,133.99,0.18c3.78,0.01,6.52-1.02,9.22-3.75c58.34-58.8,116.72-117.54,175.18-176.21
			c26.93-27.03,54.05-53.87,81.08-80.8c0-3.83-0.29-7.7,0.08-11.49C1536.59,0.82,1535.38,0,1531.63,0z M867.25,232.2
			c-0.02,0.02-0.05,0.05-0.07,0.07C867.17,232.27,867.21,232.24,867.25,232.2z"/>
		<path class="st0" d="M901.16,198.26c0.02-0.02,0.05-0.04,0.07-0.07c0.02-0.02,0.04-0.04,0.06-0.07
			C901.3,198.13,901.16,198.26,901.16,198.26z"/>
		<path class="st0" d="M966.23,132.39c0,0,0.3,0.12,0.3,0.12c0,0,0.01,0,0.01,0c0-0.02,0.01-0.03,0.01-0.04L966.23,132.39z"/>
		<path class="st0" d="M960.15,139.18c0.01-0.01,0.03-0.03,0.04-0.04c0.01-0.01,0.02-0.02,0.02-0.03
			C960.22,139.11,960.15,139.18,960.15,139.18z"/>
	</g>
	<path class="st0" d="M4.63,0c-3.75,0-4.61,0.84-4.6,4.59c0.14,53.5,0.1,107,0.1,160.5c0.35,0.05,0.7,0.11,1.04,0.16
		c28.14-0.05,56.29-0.14,84.43-0.14c187.87-0.01,375.73-0.01,563.6-0.03c2.3,0,4.67,0.48,6.9-0.57
		c12.47-12.82,49.52-50.42,50.45-51.36c23.08-23.32,46.21-46.6,69.27-69.94c14.15-14.32,28.21-28.74,42.31-43.11
		C546.96,0.09,275.8,0.1,4.63,0z"/>
</g>
<path id="segRed" class="st1" d="M537.67,873.09c29.79-30.01,59.54-60.07,89.39-90.02c33.73-33.85,67.51-67.66,101.35-101.4
	c62.85-62.66,125.77-125.26,188.64-187.9c2.1-2.1,4.02-4.38,6.02-6.58c1.23-1.11,2.5-2.17,3.67-3.34
	c67.38-67.9,134.76-135.79,202.09-203.74c2.25-2.27,4.49-3.43,7.83-3.43c44.66,0.12,89.33,0.06,133.99,0.18
	c3.78,0.01,6.52-1.02,9.22-3.75c58.34-58.8,116.72-117.54,175.18-176.21c26.93-27.03,54.05-53.87,81.08-80.8
	c0,119.33,0,238.67,0,358c-1.61,0.32-2.39,1.72-3.42,2.75c-56.41,56.41-112.8,112.84-169.18,169.28
	c-68.86,68.92-137.72,137.86-206.61,206.76c-1.34,1.34-192.79,193.7-236.54,237.51c-11.15,11.17-22.17,22.47-33.25,33.71
	c-166,0-332,0-498,0c0.94-1.14,1.81-2.36,2.85-3.41c23.64-23.95,47.32-47.86,70.96-71.81C487.86,923.62,512.76,898.35,537.67,873.09
	z"/>
<g id="knife">
	<g>
		<path class="st2" d="M1150.78,717.84c0.03-70.96-0.12-158.53-0.04-229.5l0,0.01c-6.53,6.62-13.08,13.28-19.6,19.91
			c-25.09,25.53-50.23,51.01-75.35,76.51c-0.31,0.31-0.61,0.63-0.92,0.94c-0.2,0.17-0.26,0.39-0.17,0.64
			c-0.33,0.44-0.66,0.87-0.99,1.31c-0.02,46.4-0.04,92.81-0.06,139.21c0,0,0.06-0.01,0.06-0.01c29.32-0.03,58.64-0.04,87.95-0.12
			C1152.06,726.7,1150.77,728.09,1150.78,717.84z"/>
		<path class="st2" d="M1053.65,587.72c0.02-0.02,0.03-0.05,0.05-0.07c0-0.01,0-0.02,0-0.03
			C1053.7,587.62,1053.65,587.72,1053.65,587.72z"/>
	</g>
	<path class="st2" d="M1053.07,897.29c0.02-47.59,0.03-95.18,0.05-142.77c0-6.42,0.01-6.42,6.62-6.42c28.29,0,56.58,0.09,84.86-0.1
		c4.38-0.03,5.78,1.16,5.62,5.6c-0.55,15.93,0.52,31.88-0.58,47.82c-0.02,0.23,0.39,0.5,0.6,0.74c-0.31,2.88-2.32,4.69-4.18,6.55
		c-28.92,29.02-57.87,58.02-86.81,87.02C1057.51,897.49,1055.85,899.6,1053.07,897.29z M1073.12,864.07
		c1.26-0.06,1.93-0.72,1.99-1.98c12.33-12.97,24.92-25.69,37.87-38.04c0.37-0.37,0.73-0.74,1.1-1.1
		c6.91-6.98,13.82-13.96,20.73-20.94c0.43-0.49,0.85-0.97,1.28-1.46c0.88-2.52,1.54-5.04,1.51-7.77
		c-0.09-7.82-0.22-15.65,0.02-23.46c0.1-3.47-0.91-4.48-4.42-4.46c-20.8,0.16-41.61,0.19-62.41-0.03c-4.01-0.04-4.9,1.14-4.88,4.96
		c0.17,32.12,0.12,64.25,0.19,96.37c0,1.17-0.79,2.65,0.77,3.6C1068.96,867.85,1071.04,865.96,1073.12,864.07z"/>
	<path class="st3" d="M1134.81,802.01c-6.91,6.98-13.82,13.96-20.73,20.93c-0.37,0.37-0.73,0.74-1.1,1.1
		c-12.95,12.35-25.54,25.07-37.87,38.04c-0.66,0.66-1.33,1.32-1.99,1.98c-2.08,1.89-4.16,3.77-6.26,5.69
		c-1.56-0.95-0.77-2.43-0.77-3.6c-0.07-32.12-0.02-64.25-0.19-96.37c-0.02-3.82,0.87-5,4.88-4.96c20.8,0.22,41.61,0.19,62.41,0.03
		c3.52-0.03,4.53,0.99,4.42,4.46c-0.23,7.82-0.1,15.64-0.02,23.46c0.03,2.72-0.63,5.25-1.51,7.77
		C1135.66,801.04,1135.23,801.53,1134.81,802.01z"/>
</g>
<g id="segBlue">
	<path class="st3" d="M1536.13,666.09c-0.36-0.01-0.72-0.02-1.08-0.02c-7.36,6.59-14.26,13.62-20.96,20.87
		c-0.37,0.37-0.73,0.75-1.1,1.12c-1.97,1.97-3.94,3.93-5.91,5.9c-0.02,1.37-0.72,2.07-2.08,2.1c-2.59,2.01-4.89,4.31-6.91,6.9
		c-0.37,0.37-0.73,0.74-1.1,1.11c-1.26,0.67-2.21,1.64-2.9,2.88c-0.37,0.37-0.74,0.75-1.11,1.12c-8.27,7.66-16.22,15.64-23.88,23.91
		c-0.37,0.36-0.73,0.73-1.1,1.09c-0.3,0.3-0.6,0.6-0.9,0.9c-0.36,0.37-0.71,0.74-1.07,1.11c0,0,0.08-0.08,0.08-0.08
		c-0.36,0.36-0.73,0.72-1.09,1.08c-3.64,2.95-6.87,6.3-9.93,9.84c-0.35,0.37-0.7,0.75-1.04,1.12c-0.32,0.33-0.64,0.65-0.96,0.98
		c-0.03,1.35-0.75,2.01-2.09,2.04c-4.3,4.3-8.6,8.59-12.9,12.89c-0.37,0.37-0.75,0.75-1.12,1.12c-9.3,9.28-18.59,18.56-27.89,27.84
		c-0.38,0.38-0.76,0.77-1.15,1.15c-0.62,0.61-1.24,1.23-1.86,1.84c-0.34,0.36-0.67,0.72-1.01,1.08c-0.38,0.36-0.77,0.72-1.15,1.08
		c-6.27,6.3-12.55,12.6-18.82,18.9c-0.38,0.37-0.77,0.74-1.15,1.11c-4.62,4.61-9.24,9.22-13.86,13.83
		c-0.38,0.39-0.77,0.78-1.15,1.16c-0.28,0.29-0.56,0.57-0.84,0.86c-0.38,0.38-0.77,0.76-1.15,1.14c-0.29,0.27-0.57,0.55-0.86,0.82
		c-0.39,0.39-0.78,0.78-1.17,1.17c-0.61,0.61-1.22,1.23-1.83,1.84c-0.34,0.36-0.68,0.72-1.01,1.08c-0.38,0.36-0.76,0.72-1.15,1.07
		c-3.28,3.28-6.56,6.56-9.84,9.84c-0.37,0.4-0.74,0.79-1.1,1.19c0,0,0.12-0.14,0.12-0.14c-0.37,0.36-0.73,0.73-1.1,1.09
		c-0.36,0.34-0.73,0.68-1.09,1.02c-0.61,0.61-1.22,1.21-1.83,1.82c-0.39,0.39-0.78,0.79-1.18,1.18c-0.28,0.27-0.55,0.55-0.83,0.82
		c-0.37,0.4-0.74,0.8-1.11,1.2c0,0,0.13-0.15,0.13-0.15c-0.38,0.38-0.76,0.76-1.14,1.13c0,0,0.14-0.14,0.14-0.14
		c-0.38,0.38-0.76,0.76-1.14,1.14c0,0,0.14-0.15,0.14-0.15c-0.38,0.38-0.76,0.76-1.14,1.15c0,0,0.14-0.14,0.14-0.14
		c-0.38,0.38-0.76,0.76-1.14,1.14c0,0,0.14-0.15,0.14-0.15c-0.38,0.38-0.77,0.76-1.16,1.14c0,0,0.15-0.15,0.15-0.15
		c-0.38,0.38-0.76,0.77-1.15,1.15c0,0,0.17-0.14,0.17-0.14c-0.42,0.38-0.84,0.75-1.26,1.13c-0.26,0.27-0.51,0.53-0.77,0.8
		c-0.37,0.41-0.75,0.82-1.12,1.23c0,0,0.13-0.16,0.13-0.16c-0.38,0.38-0.76,0.77-1.14,1.15c0,0,0.14-0.15,0.14-0.15
		c-0.38,0.38-0.76,0.77-1.14,1.15c0,0,0.14-0.15,0.14-0.15c-0.38,0.38-0.75,0.77-1.13,1.15c0,0,0.14-0.14,0.14-0.14
		c-0.38,0.38-0.76,0.76-1.14,1.14c0,0,0.14-0.14,0.14-0.14c-0.38,0.38-0.76,0.76-1.14,1.14c0,0,0.14-0.14,0.14-0.14
		c-0.38,0.38-0.76,0.76-1.14,1.14c0,0,0.14-0.15,0.14-0.15c-0.38,0.38-0.76,0.77-1.13,1.15c0,0,0.14-0.14,0.14-0.14
		c-0.38,0.38-0.76,0.76-1.14,1.14c0,0,0.14-0.14,0.14-0.14c-0.39,0.38-0.77,0.75-1.16,1.13c0,0,0.14-0.16,0.14-0.16
		c-0.38,0.38-0.76,0.77-1.15,1.15c0,0,0.15-0.16,0.15-0.16c-0.38,0.38-0.76,0.77-1.15,1.16c0,0,0.14-0.16,0.14-0.16
		c-0.38,0.38-0.76,0.77-1.14,1.15c0,0,0.17-0.14,0.17-0.14c-0.44,0.37-0.88,0.74-1.32,1.11c-0.57,0.6-1.14,1.2-1.72,1.79
		c-0.37,0.42-0.74,0.83-1.12,1.25c0,0,0.13-0.17,0.13-0.17c-0.38,0.38-0.76,0.77-1.14,1.15c0,0,0.14-0.15,0.14-0.15
		c-0.38,0.38-0.76,0.77-1.14,1.15c0,0,0.14-0.15,0.14-0.15c-0.38,0.38-0.76,0.77-1.14,1.15c0,0,0.14-0.15,0.14-0.15
		c-0.38,0.38-0.77,0.76-1.16,1.15c0,0,0.15-0.16,0.15-0.16c-0.38,0.39-0.76,0.78-1.14,1.16c0,0,0.14-0.15,0.14-0.15
		c-0.38,0.38-0.76,0.77-1.14,1.15c0,0,0.14-0.15,0.14-0.15c-0.38,0.38-0.77,0.76-1.15,1.14c0,0,0.15-0.16,0.15-0.16
		c-0.38,0.39-0.77,0.77-1.15,1.16c0,0,0.15-0.16,0.15-0.16c-0.38,0.39-0.76,0.77-1.14,1.16c0,0,0.15-0.16,0.15-0.16
		c-0.38,0.39-0.76,0.77-1.14,1.16c0,0,0.14-0.15,0.14-0.15c-0.38,0.38-0.76,0.77-1.14,1.15c0,0,0.14-0.15,0.14-0.15
		c-0.38,0.38-0.76,0.77-1.14,1.15c0,0,0.14-0.15,0.14-0.15c-0.38,0.38-0.76,0.77-1.13,1.16c0,0,0.14-0.15,0.14-0.15
		c-0.38,0.38-0.76,0.76-1.14,1.15c0,0,0.14-0.15,0.14-0.15c-0.38,0.38-0.76,0.76-1.14,1.15c0,0,0.14-0.15,0.14-0.15
		c-0.38,0.38-0.76,0.76-1.14,1.14c0,0,0.14-0.15,0.14-0.15c-0.38,0.38-0.76,0.76-1.14,1.15c-0.36,0.33-0.72,0.66-1.09,0.98
		c-1.56,0.98-2.84,2.24-3.79,3.83c-0.37,0.4-0.74,0.8-1.11,1.21c0,0,0.13-0.15,0.13-0.15c-0.38,0.38-0.76,0.76-1.13,1.14
		c0,0,0.14-0.14,0.14-0.14c-0.38,0.38-0.76,0.76-1.13,1.14c0,0,0.13-0.14,0.13-0.14c-0.37,0.38-0.74,0.76-1.12,1.15
		c0,0,0.12-0.13,0.12-0.13c-0.38,0.37-0.76,0.75-1.14,1.12c0,0,0.13-0.14,0.13-0.14c-0.37,0.37-0.75,0.75-1.12,1.12
		c-0.36,0.33-0.71,0.67-1.07,1c-1.27,1.28-2.55,2.55-3.82,3.83c-0.39,0.39-0.77,0.78-1.16,1.17c-1.28,1.28-2.56,2.55-3.84,3.83
		c-0.37,0.4-0.73,0.8-1.1,1.19c0,0,0.12-0.14,0.12-0.14c-0.38,0.38-0.75,0.75-1.13,1.13c0,0,0.13-0.13,0.13-0.13
		c-0.36,0.37-0.73,0.73-1.1,1.1c-0.36,0.34-0.73,0.68-1.09,1.01c-0.28,0.28-0.55,0.57-0.83,0.85c-0.39,0.38-0.77,0.77-1.16,1.15
		c-0.28,0.28-0.57,0.56-0.85,0.83c-0.35,0.37-0.69,0.75-1.04,1.12c0-0.02,0-0.04,0-0.06c-1.02,1.03-2.04,2.05-3.05,3.08
		c0.02,0,0.03,0,0.04,0c-0.35,0.34-0.69,0.68-1.04,1.02c-0.39,0.38-0.77,0.75-1.16,1.13l-8.68,8.09c-0.37,0.61-0.74,1.21-1.11,1.82
		c-0.36,0.33-0.71,0.65-1.07,0.98c-0.3,0.29-0.59,0.58-0.89,0.87c-0.38,0.38-0.77,0.76-1.15,1.13c-1.95,1.96-3.9,3.91-5.85,5.87
		c-0.37,0.38-0.73,0.77-1.1,1.15c-2.63,2.62-5.27,5.24-7.9,7.87c-0.33,0.35-0.67,0.7-1,1.05c-0.37,0.36-0.75,0.72-1.12,1.08
		c-9.31,8.61-18.21,17.64-26.87,26.9c-0.36,0.37-0.73,0.74-1.09,1.12c-5.29,4.64-10.24,9.61-14.91,14.86
		c-0.37,0.38-0.74,0.75-1.12,1.13c-3.61,2.96-6.86,6.29-9.89,9.84c-0.37,0.39-0.74,0.78-1.12,1.17c0,0,0.12-0.14,0.12-0.14
		c-0.37,0.37-0.73,0.74-1.1,1.11c-0.36,0.34-0.73,0.67-1.09,1.01c-0.28,0.28-0.55,0.56-0.83,0.84c0.02,0.74,0.04,1.47,0.06,2.21
		c117.67,0,235.33-0.02,353,0.1c3.42,0,4.1-0.67,4.1-4.1C1536.11,902.09,1536.13,784.09,1536.13,666.09z"/>
	<path class="st3" d="M1453.02,748.08c0.02-0.02,0.04-0.04,0.06-0.06c0-0.01,0-0.02,0-0.03
		C1453.08,747.99,1453.02,748.08,1453.02,748.08z"/>
	<path class="st3" d="M880.34,219.15C880.34,219.15,880.34,219.15,880.34,219.15c-0.05,0.05-0.1,0.1-0.15,0.15L880.34,219.15z"/>
	<path class="st3" d="M884.33,215.15c-0.02,0.02-0.04,0.04-0.06,0.06c-0.03,0.03-0.06,0.06-0.09,0.09
		C884.19,215.3,884.33,215.15,884.33,215.15z"/>
	<path class="st3" d="M861.33,238.15c-0.02,0.02-0.04,0.04-0.06,0.06c-0.03,0.03-0.06,0.06-0.08,0.08L861.33,238.15z"/>
	<path class="st3" d="M775.82,43.2c-23.06,23.34-46.18,46.62-69.27,69.94c-0.93,0.94-12.73,12.82-13.04,12.9
		c-12.47,12.82-24.94,25.64-37.41,38.47c-1.76,2.78-4.55,1.54-6.85,1.54c-122.63,0.06-245.26,0.06-367.89,0.06
		c-91.31,0-182.61,0.01-273.92-0.03c-2.1,0-4.35,0.68-6.28-0.82c-0.35-0.05-0.7-0.11-1.04-0.16c0,235.33,0,470.67,0,706
		c0,0.33,0,0.67,0,1c0.33,0.25,0.67,0.5,1,0.76c1.33,0.05,2.66,0.16,3.99,0.16c136.69,0.01,273.38,0.01,410.06-0.01
		c3.99,0,7.97-0.21,11.96-0.32c0.54,0.13,1.07,0.26,1.61,0.4l11.83-0.25c28.71,0.08,57.42,0.16,86.14,0.24
		c3.65,0.01,7.3,0.01,10.95,0.02c29.79-30.01,59.54-60.07,89.39-90.02c33.73-33.85,67.51-67.66,101.35-101.4
		c62.85-62.66,125.77-125.26,188.64-187.9c2.1-2.1,4.02-4.38,6.02-6.58c-41.83-41.93-83.67-83.86-125.5-125.8
		c-8.23-8.25-16.28-16.68-24.69-24.73c-3.55-3.39-3.24-5.75,0.04-9.03c25.05-25.08,49.99-50.27,74.95-75.44
		c1.16-1.17,2.24-2.43,3.35-3.65c0.37-0.47,0.74-0.93,1.11-1.4l-0.13,0.18c0.39-0.39,0.77-0.77,1.16-1.16l-0.15,0.16
		c0.39-0.39,0.77-0.77,1.16-1.16l-0.15,0.16c0.38-0.39,0.77-0.77,1.15-1.16l-0.15,0.16c0.39-0.39,0.77-0.77,1.16-1.16l-0.16,0.15
		c0.38-0.39,0.76-0.78,1.14-1.17l-0.16,0.14c0.42-0.37,0.84-0.74,1.26-1.12c0.26-0.26,0.52-0.52,0.78-0.78
		c0.37-0.42,0.74-0.84,1.12-1.26l-0.14,0.16c0.36-0.36,0.73-0.72,1.09-1.08c0.35-0.36,0.7-0.71,1.06-1.07l-0.14,0.14
		c0.38-0.38,0.76-0.77,1.13-1.15l-0.15,0.13c0.4-0.37,0.81-0.74,1.21-1.12c0.27-0.27,0.54-0.55,0.81-0.82
		c0.37-0.4,0.74-0.81,1.11-1.21c0,0-0.13,0.14-0.13,0.14c0.36-0.36,0.73-0.72,1.09-1.08c0.35-0.35,0.7-0.7,1.05-1.05
		c0,0-0.14,0.13-0.14,0.13c0.38-0.38,0.77-0.75,1.15-1.13l-0.14,0.14c0.36-0.36,0.72-0.72,1.08-1.08c0.35-0.36,0.71-0.71,1.06-1.07
		l-0.14,0.14c0.39-0.38,0.78-0.76,1.16-1.13l-0.15,0.16c0.39-0.38,0.77-0.77,1.16-1.15l-0.15,0.16c0.35-0.35,0.69-0.7,1.04-1.04
		c0.37-0.37,0.74-0.74,1.1-1.12l-0.15,0.15c0.36-0.36,0.71-0.72,1.07-1.08c0.36-0.36,0.72-0.71,1.07-1.07l-0.15,0.15
		c0.38-0.38,0.77-0.76,1.15-1.15l-0.15,0.15c0.38-0.38,0.76-0.77,1.15-1.15l-0.15,0.15c0.38-0.38,0.77-0.76,1.15-1.14
		c0.33-0.33,0.67-0.67,1-1l-0.15,0.15c0.38-0.39,0.76-0.77,1.14-1.16l-0.14,0.14c0.35-0.35,0.69-0.7,1.04-1.05
		c0.35-0.34,0.7-0.69,1.05-1.03c0.35-0.35,0.69-0.71,1.04-1.06c0,0-0.14,0.14-0.14,0.14c0.38-0.38,0.76-0.76,1.14-1.14
		c0,0-0.14,0.14-0.14,0.14c0.38-0.38,0.76-0.76,1.14-1.14l-0.14,0.14c0.37-0.38,0.74-0.76,1.12-1.15c0,0-0.12,0.12-0.12,0.12
		c0.37-0.37,0.75-0.75,1.12-1.12c0,0-0.13,0.12-0.13,0.12c0.39-0.37,0.79-0.74,1.18-1.1c1.95-1.95,3.89-3.91,5.84-5.86
		c0.35-0.37,0.7-0.74,1.05-1.11c0.37-0.34,0.73-0.69,1.1-1.03c0.62-0.61,1.24-1.22,1.86-1.83c0.35-0.37,0.7-0.75,1.05-1.12
		c0.37-0.35,0.74-0.7,1.11-1.04c0.61-0.62,1.22-1.25,1.83-1.87c0.38-0.38,0.75-0.76,1.13-1.15c3.26-2.66,6.21-5.63,8.86-8.89
		c0.36-0.38,0.73-0.75,1.09-1.13l-0.1,0.1c0.37-0.37,0.73-0.73,1.1-1.1l-0.1,0.1c0.37-0.36,0.75-0.73,1.12-1.09
		c1.9-1.37,3.58-2.95,4.88-4.91c0.37-0.36,0.74-0.73,1.12-1.09c5.6-5.01,10.9-10.31,15.88-15.93c0.36-0.36,0.72-0.72,1.08-1.08
		c6.31-6.3,12.61-12.6,18.92-18.9c0.35-0.36,0.69-0.73,1.04-1.09c0.34-0.34,0.69-0.68,1.03-1.02c0.98-0.98,1.95-1.95,2.93-2.93
		c0.08-0.89,0.21-1.74,1.43-1.65l-0.03-0.03c-0.06-0.69,0.25-1.01,0.89-1.03l0.09,0.04c0-0.02,0-0.03,0-0.05c0,0,0.01,0,0.01,0
		l-0.01,0c-0.03-0.68,0.31-1.02,1.01-1l0.03,0.1c-0.11-1.2,0.73-1.34,1.61-1.45c16.65-16.53,33.36-33,49.92-49.61
		c25.27-25.36,50.45-50.81,75.64-76.25c1.25-1.26,2.93-2.22,3.38-4.15c-93.33,0-186.67,0-280,0
		C804.03,14.47,789.97,28.88,775.82,43.2z"/>
	<path class="st3" d="M867.31,232.14c-0.02,0.02-0.03,0.03-0.05,0.05c-0.03,0.03-0.06,0.06-0.09,0.09L867.31,232.14z"/>
	<path class="st3" d="M874.35,225.15c-0.04,0.04-0.07,0.07-0.11,0.11c-0.01,0.01-0.03,0.03-0.04,0.04L874.35,225.15z"/>
	<path class="st3" d="M870.33,229.14c-0.02,0.02-0.05,0.05-0.07,0.07c-0.03,0.03-0.05,0.05-0.08,0.08L870.33,229.14z"/>
</g>
<g id="segBlack">
	<path class="st4" d="M1155.9,253.17c-1.25-0.81-0.99-1.95-0.69-3.1c0.25-0.41,0.74-1.23,0.74-1.23l-0.08,0.08l4.12-4.37
		c0,0,39.14-39.75,58.75-59.59c6.64-6.72,13.41-13.3,20.12-19.95c1.68-0.06,3.37-0.11,5.05-0.17c3.02,3.27,0.49,5.34-1.63,7.47
		c-21.97,22.07-43.95,44.14-65.94,66.19c-4.92,4.94-9.93,9.79-14.89,14.69C1159.61,253.19,1157.76,253.18,1155.9,253.17z"/>
	<path class="st4" d="M972.02,97.3c-1.74-1.39-3.81-0.97-5.77-0.97c-19.97-0.02-39.94-0.03-59.91-0.02
		c-51.42,0.04-102.84,0.09-154.25,0.14c-2.3,0-4.6,0-6.9-0.01c0,0,0,0,0,0c-0.42-0.11-0.84-0.21-1.26-0.32
		c-1.99,0.05-3.99,0.14-5.98,0.14c-55.23-0.01-110.46-0.02-165.69-0.01c-2.24,0-4.74-0.64-6.33,1.78c-0.88,0.26-0.93,0.96-0.93,1.7
		c0,0.66,0,1.32,0.01,1.98c-0.12,1.18,0.01,2.23,1.35,2.66c1.92,1.92,4.37,1.19,6.6,1.19c34.9,0.06,69.8,0.08,104.7,0.05
		c18.27-0.02,36.55-0.17,54.82-0.27c0.77-0.39,1.37-0.05,1.93,0.45c3.33-0.05,6.65-0.13,9.98-0.13
		c73.37,0.01,146.73,0.04,220.1,0.01c2.74,0,5.71,0.72,8.09-1.49C975.05,101.67,974.72,99.39,972.02,97.3z"/>
	<path class="st4" d="M742.2,896.29c-6.91,7.64-14.24,14.88-21.8,21.88c-0.4,0.4-0.8,0.8-1.19,1.19c-2.27,2.92-4.92,5.45-7.76,7.81
		c-0.41,0.41-0.82,0.82-1.23,1.23c-17.08,17.3-34.17,34.6-51.25,51.9c-4.57,4.62-9.13,9.25-13.7,13.86
		c-2.06,2.08-4.34,4.38-7.21,1.67c-3.06-2.88-0.94-5.31,1.32-7.59c52.89-53.15,105.75-106.32,158.64-159.47
		c5.28-5.3,16.02-15.72,16.02-15.72l2.04-2.07c0,0,5.7-6.24,8.97-8.94c0.34-0.35,0.69-0.69,1.03-1.04
		c15.99-16.63,32.33-32.91,48.89-48.96c0.37-0.36,1.12-1.09,1.12-1.09l3.97-3.9c0,0,0.69-0.69,1.04-1.03
		c14.97-14.99,29.93-29.99,44.9-44.98c0.36-0.36,0.73-0.72,1.09-1.09c0.64-0.64,1.28-1.28,1.92-1.91c0.36-0.37,0.72-0.74,1.07-1.11
		c6.35-6.92,12.98-13.55,19.9-19.9c0.37-0.37,0.74-0.75,1.1-1.12c0.72-1.23,1.66-2.24,2.96-2.87c1.37-0.04,2.83,0.38,4.02-0.71
		c4.52,2.98,2.38,5.75-0.31,8.45c-17.75,17.81-35.49,35.63-53.27,53.41c-4.7,4.7-14.24,13.95-14.24,13.95l-2.06,2.02
		c0,0-1.32,1.31-1.98,1.96c-0.34,0.34-0.67,0.68-1.01,1.03c-20.35,20.95-40.94,41.66-61.92,61.98c-0.36,0.36-0.72,0.73-1.08,1.09
		c-1.97,1.98-3.94,3.95-5.91,5.93c-0.37,0.36-0.73,0.72-1.1,1.07c-17.45,17.59-34.88,35.19-52.36,52.75
		c-6.09,6.12-12.3,12.13-18.46,18.19c-0.4,0.36-0.79,0.72-1.19,1.07c0,0,0.11-0.11,0.11-0.11
		C742.91,895.51,742.55,895.9,742.2,896.29z"/>
	<path class="st4" d="M1486.28,564.16c0.14,1.14-0.59,1.87-1.29,2.57c-19.82,19.83-39.65,39.66-59.48,59.48
		c-1.54-0.04-2.32,0.68-2.27,2.25c-8.24,8.25-16.49,16.5-24.73,24.75c-2.86,0.09-4.23,1.61-4.25,4.42
		c-15.78,16.01-31.49,32.09-47.35,48.02c-46.9,47.11-93.86,94.17-140.8,141.24c-1.16,1.16-2.44,2.2-3.67,3.3
		c-0.43,0.27-0.86,0.54-1.29,0.82c-0.68-0.01-1.36-0.01-2.04-0.02c-0.43-0.26-0.86-0.52-1.29-0.78c-1.11-0.66-1.94-1.47-1.54-2.92
		c1.7-0.49,1.85-1.84,1.83-3.28c19.24-19.38,38.46-38.77,57.72-58.14c73.44-73.86,146.89-147.71,220.35-221.56
		c1.16-1.17,2.45-2.2,3.67-3.3C1482.68,560.64,1484.7,561.95,1486.28,564.16z"/>
	<path class="st4" d="M749.28,555.64c-2.33-2.57-4.45-1.04-6.36,0.88c-1.29,1.3-2.6,2.57-3.89,3.87
		c-28.69,28.95-57.38,57.89-86.05,86.85c-9.35,9.45-18.63,18.98-27.94,28.47c-0.33,0.45-0.67,0.91-1,1.36c0,0,0.06-0.1,0.06-0.1
		c-0.36,0.36-0.72,0.72-1.08,1.08c0,0,0.09-0.06,0.09-0.06c-0.43,0.34-0.86,0.68-1.29,1.02c-1.58,1.61-3.17,3.22-4.75,4.83
		c-0.38,0.39-0.77,0.79-1.15,1.18c-0.61,0.62-1.23,1.25-1.84,1.87c-0.38,0.38-0.76,0.76-1.14,1.14c-2.95,2.95-5.9,5.9-8.85,8.85
		c-0.39,0.38-0.78,0.77-1.17,1.15c-17.15,17.15-34.34,34.25-51.43,51.47c-21.53,21.7-42.97,43.5-64.44,65.25
		c-0.33,0.44-0.67,0.88-1,1.32c0,0,0.06-0.1,0.06-0.1c-0.36,0.36-0.72,0.72-1.08,1.08c0,0,0.09-0.07,0.09-0.07
		c-0.44,0.34-0.87,0.68-1.31,1.02c-15.82,15.43-31.46,31.04-46.71,47.04c-0.34,0.36-0.68,0.71-1.02,1.07
		c-2.44,2.32-4.88,4.64-7.32,6.96C416.17,885.91,391,911.57,391,911.57l-6.25,6.41c0,0-36.45,36.64-54.67,54.97
		c-2.5,1.73-2.28,3.86-0.45,5.74c1.92,1.97,4.01,1.92,5.71-0.53c16.57-16.52,33.16-33.02,49.69-49.58
		c18.54-18.56,37.03-37.17,55.55-55.76c1.55-1.73,3.03-3.54,4.66-5.19c60.43-60.86,120.89-121.68,181.3-182.56
		c22.63-22.81,45.12-45.76,67.67-68.65c0.42-0.42,0.84-0.85,1.26-1.27c17.6-17.67,35.2-35.35,52.81-53.01
		C750.26,560.17,751.42,558,749.28,555.64z"/>
	<path class="st4" d="M1443.36,935.91c0,0-0.09-0.01-0.09-0.01c-1.26-2.42-3.53-1.39-5.35-1.39c-26.64-0.07-53.28-0.08-79.92-0.05
		c-29.64,0.02-59.27,0.09-88.91,0.14c-0.3,0-0.61,0-0.91,0c-0.45-0.14-0.9-0.28-1.35-0.43c-0.99,0.1-1.97,0.3-2.96,0.3
		c-46.64,0.01-93.29-0.01-139.93,0.01c-3.65,0-7.31,0.18-10.96,0.27c-0.62,0.15-1.24,0.3-1.87,0.45c-2.18,1.97-3.21,3.96-0.14,6.01
		c0.19,0.51,0.47,0.9,1.12,0.75c1.68,0,3.36,0,5.04,0l0,0c1.66,0,3.32,0,4.97,0c17.01,0,34.02,0,51.03,0c1.66,0,3.32,0,4.97,0
		c23.01,0,46.02,0,69.03,0c3.32,0,6.65,0,9.97,0c0.35,0.1,0.69,0.2,1.04,0.29c0.35-0.11,0.7-0.21,1.05-0.31
		c0.22-0.34,0.43-0.42,0.65-0.25c-0.21-0.17-0.43-0.09-0.65,0.25l0.43,0.07c0,0,0.43-0.06,0.43-0.06c10.38,0,20.76,0,31.14,0
		c0.95,0,1.9,0,2.85,0c33.72,0,67.43,0,101.15,0c0.62,0,1.23,0,1.85,0c14.3,0.04,28.6,0.09,42.9,0.12c1.14,0,2.36,0.15,3.21-0.93
		C1445.14,939.47,1446.03,937.76,1443.36,935.91z"/>
	<path class="st4" d="M1152.14,498.2c48.52-48.76,111.63-111.92,159.97-160.45c16.1-16.16,32.08-32.44,48.12-48.67
		c0.34-0.34,0.68-0.68,1.03-1.02c4.99-4.98,9.99-9.96,14.99-14.94c0.35-0.35,0.71-0.7,1.06-1.05c4.59-4.04,8.94-8.31,12.94-12.95
		c0.35-0.36,0.7-0.71,1.05-1.07c0,0-0.06,0.06-0.06,0.06c0.35-0.35,0.7-0.69,1.05-1.04c0.35-0.33,0.7-0.66,1.05-1
		c5.58-5.03,10.91-10.3,15.92-15.9l1.12-1.11c1.3-1.3,2.6-2.61,3.9-3.91c0.01-1.36,0.69-2.05,2.06-2.07
		c2.64-2.65,5.29-5.3,7.93-7.95c0.36-0.35,0.72-0.7,1.07-1.05c3.25-2.71,6.29-5.63,8.9-8.99c0.01-1.71,0.02-3.43,0.03-5.14
		c-1.71-0.1-3.56,0.62-5.01-0.9c-1.24,1.07-2.56,2.07-3.72,3.23c-93.62,94.03-280.95,282.01-280.95,282.01L1152.14,498.2"/>
</g>
</svg>
