<?xml version="1.0" encoding="utf-8"?>
<!-- Generator: Adobe Illustrator 23.0.1, SVG Export Plug-In . SVG Version: 6.00 Build 0)  -->
<svg version="1.1" id="Vrstva_1" xmlns="http://www.w3.org/2000/svg" xmlns:xlink="http://www.w3.org/1999/xlink" x="0px" y="0px"
	 viewBox="0 0 87.62 218.47" style="enable-background:new 0 0 87.62 218.47;" xml:space="preserve">
<style type="text/css">
	.st0{fill:#141212;}
	.st1{fill:#1980B3;}
</style>
<path class="st0" d="M45.86,119.25c6.17-2.17,12.51-3.75,18.79-5.54c4.69-1.34,9.44-2.52,14.13-3.86c1.46-0.42,1.76-0.05,1.75,1.41
	c-0.05,9.15-0.01,18.29,0.03,27.44c0,0.9-0.2,1.58-0.78,2.34c-7.86,10.31-15.65,20.68-23.46,31.02
	c-7.24,9.59-14.49,19.17-21.75,28.75c-3.03,4-6.1,7.97-9.1,11.99c-0.39,0.52-0.91,0.79-1.39,1.06c-2.73,1.53-5.5,2.98-8.55,4.61
	c0-0.82,0-1.39,0-1.95c0-20.9,0-41.8,0.04-62.7c0-1.33-0.38-1.89-1.7-2.33c-4.24-1.41-8.32-3.29-12.61-4.59
	c-0.75-0.23-1.02-0.74-1.02-1.63C0.17,103.83,0.1,62.37,0,20.92c0-1.2,0.28-1.56,1.55-1.89c12.37-3.15,24.71-6.42,37.05-9.7
	C49.81,6.34,61.01,3.32,72.2,0.25c1.29-0.36,2.46-0.33,3.68,0.09c3.38,1.15,6.74,2.37,10.16,3.38c1.29,0.38,1.59,0.98,1.59,2.21
	c-0.06,19.7-0.08,39.39-0.1,59.09c-0.01,10.35-0.05,20.7,0.01,31.05c0.01,1.46-0.46,2.06-1.85,2.46
	c-17.58,5.03-35.15,10.11-52.72,15.19c-3.77,1.09-3.8,1.08-3.79-2.92c0.02-4.54,0.18-9.08,0.12-13.62
	c-0.02-1.37,0.75-1.49,1.65-1.73C41.97,92.44,53,89.4,64.05,86.43c1.36-0.37,1.97-0.82,1.97-2.45C65.94,63.55,65.95,43.12,66,22.69
	c0-1.61-0.07-2.15-1.98-1.62c-13.6,3.72-27.24,7.32-40.89,10.89c-1.51,0.39-2.04,0.92-2.03,2.61c0.08,21.3,0.01,42.6,0.05,63.9
	c0.02,9.21,0.22,18.42,0.34,27.63c-0.04,0.93-0.1,1.87-0.1,2.8c0,24.3,0.02,48.61,0.02,72.91c0,1.3,0,2.6,0,4.41
	c0.61-0.71,0.9-1.04,1.17-1.38c16.65-21.96,33.3-43.93,49.97-65.88c0.72-0.94,1.09-1.87,1.09-3.09c-0.05-7.14-0.07-14.29,0.03-21.43
	c0.02-1.59-0.31-1.87-1.84-1.47c-7.99,2.08-16,4.04-24,6.08C47.16,119.21,46.53,119.36,45.86,119.25z"/>
<path class="st1" d="M71.87,111.66c1.53-0.4,1.81-0.01,1.79,1.57c-0.09,7.14-0.08,15.49-0.03,22.63c0.01,1.22-0.37,2.15-1.09,3.09
	c-16.67,21.95-33.31,43.92-49.97,65.88c-0.26,0.35-0.56,0.67-1.17,1.38c0-1.81,0-3.11,0-4.41c-0.01-24.3-0.02-48.61-0.02-72.91
	c0-0.93,0.07-1.87,0.1-2.8C28.51,124.1,63.88,113.74,71.87,111.66z"/>
</svg>
