<?xml version="1.0" encoding="utf-8"?>
<!-- Generator: Adobe Illustrator 23.0.1, SVG Export Plug-In . SVG Version: 6.00 Build 0)  -->
<svg version="1.1" id="Vrstva_1" xmlns="http://www.w3.org/2000/svg" xmlns:xlink="http://www.w3.org/1999/xlink" x="0px" y="0px"
	 viewBox="0 0 485.27 218.47" style="enable-background:new 0 0 485.27 218.47;" xml:space="preserve">
<style type="text/css">
	.st0{fill:#141212;}
	.st1{fill:#1980B3;}
	.st2{fill:#2A8F9A;}
</style>
<g>
	<path class="st0" d="M45.86,119.25c6.17-2.17,12.51-3.75,18.79-5.54c4.69-1.34,9.44-2.52,14.13-3.86c1.46-0.42,1.76-0.05,1.75,1.41
		c-0.05,9.15-0.01,18.29,0.03,27.44c0,0.9-0.2,1.58-0.78,2.34c-7.86,10.31-15.65,20.68-23.46,31.02
		c-7.24,9.59-14.49,19.17-21.75,28.75c-3.03,4-6.1,7.97-9.1,11.99c-0.39,0.52-0.91,0.79-1.39,1.06c-2.73,1.53-5.5,2.98-8.55,4.61
		c0-0.82,0-1.39,0-1.95c0-20.9,0-41.8,0.04-62.7c0-1.33-0.38-1.89-1.7-2.33c-4.24-1.41-8.32-3.29-12.61-4.59
		c-0.75-0.23-1.02-0.74-1.02-1.63C0.17,103.83,0.1,62.37,0,20.92c0-1.2,0.28-1.56,1.55-1.89c12.37-3.15,24.71-6.42,37.05-9.7
		C49.81,6.34,61.01,3.32,72.2,0.25c1.29-0.36,2.46-0.33,3.68,0.09c3.38,1.15,6.74,2.37,10.16,3.38c1.29,0.38,1.59,0.98,1.59,2.21
		c-0.06,19.7-0.08,39.39-0.1,59.09c-0.01,10.35-0.05,20.7,0.01,31.05c0.01,1.46-0.46,2.06-1.85,2.46
		c-17.58,5.03-35.15,10.11-52.72,15.19c-3.77,1.09-3.8,1.08-3.79-2.92c0.02-4.54,0.18-9.08,0.12-13.62
		c-0.02-1.37,0.75-1.49,1.65-1.73C41.97,92.44,53,89.4,64.05,86.43c1.36-0.37,1.97-0.82,1.97-2.45C65.94,63.55,65.95,43.12,66,22.69
		c0-1.61-0.07-2.15-1.98-1.62c-13.6,3.72-27.24,7.32-40.89,10.89c-1.51,0.39-2.04,0.92-2.03,2.61c0.08,21.3,0.01,42.6,0.05,63.9
		c0.02,9.21,0.22,18.42,0.34,27.63c-0.04,0.93-0.1,1.87-0.1,2.8c0,24.3,0.02,48.61,0.02,72.91c0,1.3,0,2.6,0,4.41
		c0.61-0.71,0.9-1.04,1.17-1.38c16.65-21.96,33.3-43.93,49.97-65.88c0.72-0.94,1.09-1.87,1.09-3.09
		c-0.05-7.14-0.07-14.29,0.03-21.43c0.02-1.59-0.31-1.87-1.84-1.47c-7.99,2.08-16,4.04-24,6.08
		C47.16,119.21,46.53,119.36,45.86,119.25z"/>
	<path class="st1" d="M71.87,111.66c1.53-0.4,1.81-0.01,1.79,1.57c-0.09,7.14-0.08,15.49-0.03,22.63c0.01,1.22-0.37,2.15-1.09,3.09
		c-16.67,21.95-33.31,43.92-49.97,65.88c-0.26,0.35-0.56,0.67-1.17,1.38c0-1.81,0-3.11,0-4.41c-0.01-24.3-0.02-48.61-0.02-72.91
		c0-0.93,0.07-1.87,0.1-2.8C28.51,124.1,63.88,113.74,71.87,111.66z"/>
	<path class="st0" d="M435.04,53.18c0.23,9.49,0.52,18.97,0.69,28.46c0.18,10.23,0.18,20.47,0.4,30.7c0.05,2.11-0.52,2.63-2.6,2.59
		c-3.33-0.06-6.67,0.23-9.99,0.52c-2.04,0.18-2.65-0.42-2.63-2.57c0.12-12.38,0.42-24.77-0.03-37.13
		c-0.63-16.98-0.28-33.95-0.46-50.92c-0.03-2.78,0.05-5.56-0.03-8.34c-0.05-1.56,0.55-2.19,2.1-2.18c5.86,0.04,11.73,0.05,17.59,0
		c1.22-0.01,1.89,0.35,2.15,1.58c1.67,7.96,3.28,15.93,4.51,23.98c0.97,6.31,2.43,12.53,3.58,18.81c0.64,3.49,1.15,7.01,2.6,10.51
		c0.74-3.28,1.54-6.56,2.22-9.85c1.47-7.13,2.91-14.28,4.31-21.43c1.37-6.98,2.74-13.97,3.99-20.98c0.31-1.73,1.08-2.17,2.75-2.14
		c5.4,0.11,10.8,0.16,16.19,0c2.08-0.06,2.36,0.69,2.36,2.51c-0.05,20.01-0.06,40.02,0.02,60.02c0.05,11.63,0.25,23.26,0.49,34.89
		c0.04,2.03-0.41,2.78-2.58,2.68c-3.43-0.16-6.89-0.02-10.32,0.11c-1.76,0.07-2.34-0.48-2.35-2.34
		c-0.07-10.41-0.74-20.84-0.29-31.23c0.29-6.76-0.03-13.51,0.35-20.25c0.15-2.69,0.03-5.4,0.03-8.11c-0.67-0.1-0.91,0.26-1.01,0.7
		c-3.56,16.47-7.15,32.94-10.63,49.42c-0.47,2.21-1.26,3.54-3.75,3.2c-0.73-0.1-1.49,0.02-2.23,0.02c-5.44,0.01-5.58,0.03-6.32-5.25
		c-1.16-8.25-3.55-16.23-5.12-24.39c-1.5-7.78-3.37-15.49-5.09-23.23c-0.06-0.26-0.26-0.49-0.39-0.73c0.03-0.32-0.09-0.58-0.42-0.37
		C434.99,52.55,435.06,52.94,435.04,53.18z"/>
	<path class="st0" d="M317.71,53.13c0.24,19.81,0.46,39.62,0.74,59.43c0.03,1.93-0.35,2.87-2.6,2.75c-3.24-0.17-6.51-0.06-9.76,0.16
		c-1.95,0.13-2.46-0.43-2.45-2.41c0.1-11.81,0.04-23.63,0.04-35.44c0-20.19,0.03-40.37-0.04-60.56c-0.01-1.99,0.33-2.78,2.54-2.68
		c4.46,0.2,8.93,0.11,13.39,0.06c1.8-0.02,2.73,0.55,3.32,2.46c4.26,13.72,7.87,27.62,11.54,41.5c1.13,4.26,2.32,8.51,3.89,12.72
		c0-1.58,0.12-3.17-0.02-4.74c-0.93-10.45-0.5-20.91-0.34-31.37c0.1-6.14,0.29-12.28,0.31-18.41c0-1.67,0.36-2.25,2.15-2.16
		c3.53,0.17,7.07,0.11,10.6,0.02c1.59-0.04,2.05,0.51,2.05,2.09c-0.03,32.28-0.03,64.56,0.02,96.84c0,1.52-0.28,2.12-1.95,2.08
		c-4.37-0.11-8.74-0.11-13.11,0.01c-1.35,0.04-2.23-0.47-2.41-1.61c-0.99-6.1-3.15-11.88-5.06-17.69
		c-4.12-12.54-6.96-25.43-11.06-37.97c-0.57-1.73-0.83-3.57-1.23-5.36c-0.11-0.17-0.27-0.51-0.32-0.5
		C317.54,52.48,317.61,52.81,317.71,53.13z"/>
	<path class="st0" d="M167.25,61.57c0.9,1.3,2.15,1.49,3.18,1.98c5.77,2.73,8.39,7.78,8.61,13.64c0.29,7.63,1,15.36-0.93,22.95
		c-2.17,8.54-7.56,13.19-16.17,14.66c-9.85,1.68-19.83,0.38-29.75,0.65c-1.81,0.05-1.61-1.01-1.61-2.14
		c0.01-8.28,0.02-16.55,0.01-24.83c-0.02-23.71-0.02-47.41-0.12-71.12c-0.01-2.29,0.58-2.94,2.9-2.88
		c8.54,0.24,17.08-0.07,25.62,0.37c10.36,0.53,17.72,8.9,18.61,17.33c0.63,6.02,0.75,11.99-0.08,17.97
		C176.7,56.13,172.63,59.31,167.25,61.57z M146.82,85.18c0.04,0,0.08,0,0.12,0c0,2.14-0.04,4.27,0.01,6.41
		c0.06,2.5-0.76,5.99,0.54,7.24c1.68,1.61,5.11,0.49,7.77,0.41c3.98-0.11,6.9-2.75,7.11-6.68c0.26-5.01,0.31-10.03,0.25-15.04
		c-0.04-3.07-2.15-5.25-5.02-6.18c-3.34-1.09-6.63,0.06-9.94-0.04c-1.27-0.04-0.83,0.99-0.84,1.63
		C146.81,77,146.82,81.09,146.82,85.18z M146.84,43.09c0,2.87,0,5.75,0,8.62c0,5.04,0,4.93,5.01,5.06
		c5.85,0.16,10.06-4.01,10.55-9.74c0.16-1.94,0.05-3.89,0.12-5.84c0.24-6.84-1.83-11.81-11.28-11.23c-0.92,0.06-1.86,0.08-2.78-0.02
		c-1.4-0.16-1.68,0.45-1.65,1.74C146.89,35.48,146.84,39.29,146.84,43.09z"/>
	<path class="st0" d="M246.71,65.29c0-16.1,0.04-32.2-0.05-48.3c-0.01-1.98,0.54-2.43,2.45-2.39c8.28,0.18,16.57,0.05,24.84,0.32
		c10.09,0.33,18.13,7.56,19.19,17.71c0.83,7.95,0.96,15.9-0.04,23.83c-0.75,5.95-3.35,10.82-9.03,13.5
		c-1.06,0.5-0.86,0.84-0.61,1.82c2.55,9.95,5.7,19.72,8.64,29.55c1.25,4.17,2.51,8.34,3.77,12.51c0.35,1.16,0.3,1.83-1.26,1.82
		c-4.56-0.05-9.12-0.02-13.68,0.12c-2.18,0.07-1.97-1.76-2.26-2.83c-3.25-12.18-6.36-24.4-9.52-36.6c-0.34-1.31-4.9-2.63-5.88-1.67
		c-0.66,0.64-0.3,1.6-0.3,2.41c0.02,11.91,0.02,23.82,0.15,35.73c0.02,1.99-0.3,2.89-2.53,2.64c-3.81-0.43-7.59,0.36-11.38,0.56
		c-1.98,0.1-2.45-0.49-2.44-2.43c0.08-16.1,0.05-32.2,0.05-48.3C246.8,65.29,246.76,65.29,246.71,65.29z M263,44.99
		c0,0,0.01,0,0.01,0c0,3.07,0,6.13,0,9.2c0,7.07,0,7.07,7.25,6.32c4.43-0.46,6.61-2.83,6.64-7.29c0.03-5.2,0.01-10.4,0-15.6
		c0-4.86-2.72-7.65-7.64-7.82c-1.48-0.05-2.98,0.1-4.45-0.05c-1.54-0.16-1.86,0.46-1.84,1.87C263.05,36.07,263,40.53,263,44.99z"/>
	<path class="st0" d="M410.95,53.73c0,9.95-0.02,19.9,0.01,29.85c0.01,5.92-0.26,11.83-1.72,17.57c-1.66,6.52-8,14.43-17.07,14.93
		c-4.58,0.25-9.15,0.57-13.58-0.42c-6.38-1.44-10.68-5.51-12.97-11.73c-1.17-3.17-1.93-6.35-2.08-9.76
		c-1.14-25.71-0.24-51.42-0.37-77.13c-0.01-2.35,0.8-2.75,2.86-2.67c3.81,0.15,7.63,0.19,11.44-0.01c2.02-0.11,2.24,0.68,2.24,2.37
		c-0.04,16.09-0.06,32.18,0.04,48.28c0.04,6.59,0.65,13.17,0.02,19.78c-0.29,3.01,0.15,6.13,0.51,9.16
		c0.44,3.71,3.28,5.54,7.69,5.39c3.9-0.13,5.77-2.49,6.29-6.84c0.89-7.45,0.44-14.96,0.45-22.44c0.02-17.49,0.02-34.98-0.15-52.47
		c-0.03-2.78,0.8-3.47,3.43-3.28c3.43,0.24,6.89,0.19,10.32,0.01c1.86-0.1,2.47,0.59,2.4,2.29c-0.03,0.74,0,1.49,0,2.23
		c0,11.63,0,23.25,0,34.88C410.79,53.73,410.87,53.73,410.95,53.73z"/>
	<path class="st0" d="M219.7,95.38c-4.83,0.04-9.67,0.13-14.5,0.1c-1.53-0.01-2.48-0.03-2.68,2.06c-0.5,5.38-1.46,10.72-2.03,16.09
		c-0.17,1.59-0.65,2.05-2.18,2.02c-4.28-0.08-8.56-0.14-12.83,0.05c-1.94,0.08-1.94-0.85-1.7-2.15c0.8-4.43,1.75-8.85,2.41-13.3
		c1.17-7.85,2.68-15.64,3.69-23.51c0.92-7.24,2.43-14.4,3.52-21.61c1.02-6.78,2.23-13.52,3.25-20.29
		c0.92-6.12,1.84-12.26,2.98-18.36c0.2-1.07,0.57-1.7,1.95-1.68c6.69,0.1,13.39,0.11,20.08,0.03c1.4-0.02,1.65,0.53,1.83,1.69
		c0.83,5.23,1.76,10.45,2.63,15.68c1.41,8.5,2.82,17,4.21,25.51c1.21,7.39,2.4,14.79,3.62,22.19c1.39,8.39,2.8,16.78,4.2,25.17
		c0.45,2.71,0.92,5.42,1.36,8.14c0.25,1.51-0.01,2.33-1.95,2.26c-4.27-0.16-8.55-0.06-12.83,0c-1.28,0.02-1.79-0.19-2.07-1.71
		c-1.1-6.04-2.01-12.1-2.76-18.18c0,0-0.02-0.16-0.02-0.16L219.7,95.38z M211.43,38.16c-0.4,2.98-0.79,5.97-1.22,8.94
		c-1.64,11.26-3.26,22.53-4.98,33.78c-0.19,1.22,0.08,1.44,1.17,1.41c2.79-0.08,5.58-0.1,8.37-0.13c3.46-0.05,3.47-0.05,2.85-3.57
		C215.26,65.2,213.72,51.71,211.43,38.16z"/>
	<path class="st0" d="M422.12,154.29c0.56-3.62-0.28-7.18,0.48-10.78c1.08-5.07,3.62-8.73,8.81-9.72
		c5.34-1.03,10.64-1.26,15.55,2.13c3.57,2.46,4.09,6.08,4.68,9.79c0.18,1.14-0.67,1.37-1.61,1.37c-2.42,0-4.84,0-7.25,0.02
		c-1.31,0.01-1.84-0.57-1.69-1.89c0.29-2.65-1.41-3.71-3.61-4.08c-2.19-0.37-4.49,1.13-4.68,3.34c-0.56,6.67-0.6,13.38-0.02,20.05
		c0.21,2.38,2.46,3.8,4.85,3.47c2.39-0.33,3.77-1.64,3.47-4.21c-0.12-1.04,0.1-1.55,1.27-1.53c2.7,0.04,5.4,0.05,8.09-0.05
		c1.29-0.05,1.33,0.65,1.26,1.56c-0.34,4.55-1.99,8.56-6.23,10.55c-6.11,2.86-12.38,3.14-18.29-0.81c-3.68-2.46-4.51-6.44-5-10.38
		C421.83,160.19,422.12,157.19,422.12,154.29z"/>
	<path class="st0" d="M469.29,167.16c5.04,0,9.49,0.06,13.94-0.03c1.58-0.03,2.01,0.46,2.03,2.03c0.07,6.02,0.13,6.02-5.78,6.02
		c-6.32,0-12.64-0.08-18.96,0.04c-1.99,0.04-2.51-0.45-2.8-2.54c-0.62-4.48,1.85-7.62,3.88-11c3.64-6.05,7.35-12.05,10.99-18.1
		c0.95-1.58-0.35-1.38-1.25-1.38c-3.81-0.01-7.62-0.06-11.43,0.02c-1.5,0.03-2.09-0.34-2.13-2c-0.16-6.08-0.22-6.08,5.8-6.08
		c6.23,0.01,12.46,0.13,18.68-0.03c2.32-0.06,2.84,0.73,2.75,2.86c-0.11,2.5-0.39,4.81-1.77,7.04
		C478.58,151.52,474.1,159.14,469.29,167.16z"/>
	<path class="st2" d="M317.71,53.13c-0.1-0.32-0.17-0.65,0.25-0.77c0.05-0.02,0.21,0.33,0.32,0.5
		C318.09,52.94,317.9,53.04,317.71,53.13z"/>
	<path class="st2" d="M435.04,53.18c0.02-0.25-0.05-0.63,0.07-0.71c0.33-0.21,0.45,0.05,0.42,0.37
		C435.37,52.95,435.2,53.07,435.04,53.18z"/>
	<polygon class="st2" points="219.7,95.38 219.86,95.39 219.88,95.55 219.73,95.53 	"/>
</g>
</svg>
